<?xml version="1.0" encoding="utf-8"?>
<!-- Generator: Adobe Illustrator 22.0.1, SVG Export Plug-In . SVG Version: 6.00 Build 0)  -->
<svg version="1.1" id="Layer_1" xmlns="http://www.w3.org/2000/svg" xmlns:xlink="http://www.w3.org/1999/xlink" x="0px" y="0px"
	 viewBox="0 0 256 256" style="enable-background:new 0 0 256 256;" xml:space="preserve">
<style type="text/css">
	.st0{fill:#3A312A;}
	.st1{fill:#FCE8CB;}
	.st2{fill:#8AC5DC;}
	.st3{fill:#ED6E7A;}
	.st4{fill:#D7E057;}
	.st5{fill:#87796F;}
	.st6{fill:#695B51;}
	.st7{fill:#EF6D7A;}
	.st8{fill:#D6DF58;}
	.st9{fill:#6A5C52;}
	.st10{fill:#F16C7A;}
	.st11{fill:#8AC6DD;}
	.st12{fill:#D34E5C;}
	.st13{fill:#B9C239;}
	.st14{fill:#6CA8BF;}
	.st15{fill:#89C4DB;}
	.st16{fill:#D5DE58;}
	.st17{fill:#DECAAD;}
	.st18{fill:#D5DC57;}
	.st19{fill:#8AC3DA;}
	.st20{fill:#D4DB56;}
	.st21{fill:#EA6D7A;}
	.st22{fill:#FAE6CA;}
	.st23{fill:#EB6E7A;}
	.st24{fill:#F8E4C8;}
	.st25{fill:#E96C7A;}
	.st26{fill:#8AC2D9;}
	.st27{fill:#E86C7A;}
	.st28{fill:#8AC1D8;}
	.st29{fill:#D4DA55;}
</style>
<g>
	<g>
		<g>
			<path class="st2" d="M179.871,47.541l-17.053-25.789c-3.285-4.971-9.981-6.332-14.945-3.048
				c-4.968,3.286-6.333,9.978-3.047,14.946l1.938,2.93c-4.752-0.46-9.558-0.566-14.402-0.348l-13.636,1.511
				C85.285,43.769,57.013,66.117,43.5,97.897c-2.33,5.482,0.224,11.815,5.706,14.146c1.378,0.586,2.808,0.863,4.215,0.863
				c4.196,0,8.186-2.463,9.932-6.568c11.708-27.539,37.483-46.087,67.263-48.407c4.661-0.362,9.278-0.327,13.833,0.102l-5.312,3.513
				c-4.969,3.286-6.334,9.977-3.047,14.946c2.074,3.138,5.507,4.838,9.006,4.838c2.043,0,4.109-0.579,5.94-1.79l25.788-17.052
				c2.386-1.578,4.048-4.039,4.62-6.842C182.015,52.842,181.449,49.927,179.871,47.541z"/>
		</g>
	</g>
	<g>
		<g>
			<path class="st0" d="M181.122,46.714l-17.053-25.789c-1.81-2.738-4.578-4.607-7.795-5.262c-3.216-0.653-6.494-0.02-9.23,1.791
				c-2.737,1.81-4.605,4.578-5.261,7.793c-0.656,3.216-0.019,6.495,1.791,9.231l0.239,0.361c-3.765-0.244-7.625-0.278-11.519-0.104
				c-0.828,0.037-1.468,0.738-1.431,1.566c0.037,0.827,0.731,1.468,1.566,1.431c4.826-0.216,9.6-0.102,14.19,0.343
				c0.574,0.055,1.132-0.224,1.43-0.72c0.298-0.496,0.285-1.118-0.034-1.601l-1.938-2.931c-1.368-2.068-1.849-4.546-1.354-6.977
				c0.496-2.43,1.908-4.522,3.977-5.891c2.067-1.368,4.544-1.848,6.975-1.353c2.432,0.496,4.524,1.908,5.892,3.977l17.053,25.789
				c1.368,2.068,1.849,4.546,1.354,6.977c-0.496,2.431-1.909,4.522-3.977,5.891l-25.788,17.053
				c-1.525,1.008-3.293,1.541-5.112,1.541c-0.001,0-0.001,0-0.002,0c-3.13,0-6.029-1.557-7.753-4.166
				c-1.368-2.068-1.849-4.546-1.353-6.977c0.496-2.43,1.908-4.522,3.977-5.891l5.312-3.513c0.531-0.351,0.782-0.998,0.628-1.615
				c-0.154-0.617-0.681-1.069-1.315-1.129c-4.625-0.436-9.367-0.471-14.09-0.104c-30.341,2.363-56.599,21.259-68.527,49.315
				c-1.461,3.436-4.818,5.655-8.552,5.655c-1.248,0-2.469-0.25-3.628-0.743c-4.712-2.004-6.915-7.467-4.912-12.179
				c13.238-31.133,40.943-53.288,74.11-59.264c0.815-0.147,1.357-0.927,1.21-1.742c-0.146-0.815-0.93-1.361-1.742-1.21
				C84.293,42.424,55.755,65.243,42.12,97.31c-2.65,6.234,0.266,13.463,6.499,16.114c1.533,0.652,3.148,0.982,4.802,0.982
				c4.939,0,9.38-2.937,11.313-7.481c11.489-27.022,36.778-45.222,65.998-47.498c3.064-0.239,6.133-0.302,9.175-0.188l-1.597,1.056
				c-2.737,1.81-4.606,4.578-5.261,7.793c-0.656,3.216-0.02,6.494,1.79,9.231c2.281,3.451,6.115,5.511,10.255,5.511h0.002
				c2.41,0,4.75-0.705,6.767-2.039l25.788-17.053c2.737-1.81,4.606-4.577,5.263-7.793C183.569,52.729,182.932,49.45,181.122,46.714z
				"/>
		</g>
	</g>
	<g>
		<g>
			<path class="st3" d="M222.68,195.496l-2.608,0.209c3.237-4.578,6.112-9.447,8.601-14.601
				c16.503-34.171,12.638-74.316-10.09-104.772c-3.563-4.774-10.321-5.756-15.095-2.193c-4.775,3.562-5.756,10.321-2.194,15.095
				c17.898,23.982,20.945,55.59,7.953,82.488c-2.181,4.515-4.748,8.743-7.653,12.693l-0.592-7.375
				c-0.476-5.938-5.688-10.368-11.614-9.888c-5.938,0.477-10.366,5.676-9.888,11.614l2.474,30.817
				c0.453,5.644,5.174,9.923,10.74,9.923c0.29,0,0.581-0.011,0.875-0.035l30.818-2.474c5.938-0.477,10.365-5.676,9.887-11.614
				C233.818,199.446,228.627,195.023,222.68,195.496z"/>
		</g>
	</g>
	<g>
		<g>
			<path class="st0" d="M223.076,193.971c2.577-3.894,4.908-7.99,6.948-12.214c16.748-34.676,12.825-75.417-10.238-106.322
				c-4.052-5.429-11.766-6.55-17.194-2.498c-2.63,1.962-4.339,4.832-4.811,8.08c-0.472,3.248,0.349,6.484,2.312,9.115
				c17.562,23.531,20.552,54.545,7.805,80.938c-1.501,3.108-3.225,6.141-5.143,9.054l-0.257-3.204
				c-0.262-3.27-1.784-6.244-4.286-8.373c-2.502-2.128-5.68-3.157-8.943-2.89c-3.272,0.263-6.245,1.783-8.372,4.282
				c-2.128,2.499-3.154,5.677-2.891,8.948l2.474,30.817c0.509,6.338,5.883,11.303,12.234,11.303c0.331,0,0.663-0.013,0.996-0.041
				l30.818-2.474c3.271-0.263,6.244-1.783,8.371-4.282c2.128-2.499,3.154-5.677,2.891-8.948
				C235.262,198.688,229.622,193.728,223.076,193.971z M230.614,212.267c-1.608,1.889-3.855,3.038-6.327,3.236l-30.819,2.474
				c-5.125,0.423-9.593-3.473-9.998-8.513l-2.474-30.817c-0.199-2.473,0.577-4.874,2.185-6.763c1.608-1.889,3.855-3.038,6.329-3.236
				c0.255-0.021,0.508-0.031,0.761-0.031c2.196,0,4.301,0.773,5.996,2.215c1.891,1.61,3.042,3.857,3.24,6.329l0.592,7.375
				c0.05,0.624,0.482,1.151,1.085,1.323c0.601,0.171,1.247-0.05,1.619-0.554c2.997-4.075,5.62-8.424,7.795-12.929
				c13.236-27.405,10.131-59.606-8.102-84.037c-1.483-1.988-2.104-4.435-1.747-6.889c0.357-2.455,1.648-4.624,3.636-6.107
				c4.104-3.062,9.933-2.216,12.996,1.888c22.391,30.005,26.2,69.558,9.941,103.223c-2.428,5.027-5.28,9.868-8.475,14.387
				c-0.336,0.476-0.367,1.103-0.079,1.608c0.289,0.506,0.849,0.799,1.423,0.753l2.608-0.209c5.106-0.4,9.59,3.412,10,8.513
				C232.998,207.977,232.222,210.378,230.614,212.267z"/>
		</g>
	</g>
	<g>
		<g>
			<path class="st16" d="M154.652,226.996c-0.522-5.934-5.752-10.326-11.691-9.797c-29.801,2.624-58.304-11.387-74.365-36.572
				c-1.417-2.222-2.708-4.494-3.888-6.807l0.145,0.102c4.87,3.43,11.6,2.26,15.029-2.61c3.43-4.871,2.26-11.6-2.61-15.029
				l-25.279-17.799c-4.871-3.428-11.598-2.26-15.029,2.609l-17.8,25.28c-3.43,4.87-2.261,11.599,2.61,15.029
				c1.888,1.33,4.054,1.968,6.2,1.968c3.391,0,6.729-1.595,8.829-4.577l4.037-5.733c2.48,6.645,5.668,13.048,9.569,19.166
				c6.349,9.956,14.23,18.531,23.209,25.529l11.649,7.836c15.161,8.734,32.529,13.495,50.548,13.495c2.996,0,6.016-0.132,9.04-0.398
				C150.788,238.164,155.175,232.93,154.652,226.996z"/>
		</g>
	</g>
	<g>
		<g>
			<path class="st0" d="M156.146,226.865c-0.288-3.27-1.831-6.232-4.344-8.34c-2.516-2.109-5.7-3.112-8.972-2.82
				c-29.245,2.576-57.209-11.174-72.968-35.885c-0.575-0.901-1.137-1.826-1.684-2.767c1.612,0.39,3.303,0.448,4.988,0.155
				c3.233-0.562,6.054-2.349,7.943-5.032c3.9-5.539,2.566-13.219-2.973-17.12l-25.28-17.799c-5.537-3.896-13.216-2.564-17.118,2.973
				l-17.8,25.279c-1.889,2.684-2.621,5.942-2.06,9.175c0.562,3.233,2.349,6.054,5.032,7.944c2.082,1.466,4.524,2.241,7.063,2.241
				c3.997,0,7.756-1.949,10.056-5.214l2.426-3.446c2.36,5.823,5.276,11.471,8.688,16.822c6.352,9.961,14.276,18.677,23.552,25.906
				c0.653,0.509,1.596,0.394,2.105-0.261c0.509-0.653,0.393-1.596-0.261-2.105c-9.005-7.018-16.698-15.48-22.866-25.153
				c-3.81-5.975-6.982-12.328-9.428-18.884c-0.194-0.521-0.662-0.892-1.213-0.963c-0.553-0.074-1.098,0.169-1.419,0.625
				l-4.037,5.733c-1.738,2.468-4.58,3.941-7.603,3.941c-1.917,0-3.762-0.586-5.336-1.694c-2.028-1.428-3.379-3.561-3.803-6.004
				c-0.424-2.444,0.128-4.907,1.557-6.935l17.799-25.279c2.948-4.186,8.753-5.195,12.939-2.247l25.279,17.799
				c4.187,2.948,5.195,8.753,2.248,12.939c-1.428,2.028-3.56,3.378-6.004,3.803c-2.443,0.427-4.907-0.128-6.932-1.554l-0.145-0.103
				c-0.563-0.398-1.325-0.361-1.848,0.091c-0.521,0.452-0.668,1.201-0.354,1.815c1.222,2.395,2.554,4.727,3.96,6.932
				c16.362,25.657,45.388,39.94,75.762,37.26c2.471-0.22,4.879,0.537,6.78,2.131c1.9,1.593,3.066,3.832,3.284,6.304
				c0.218,2.471-0.54,4.878-2.133,6.779c-1.593,1.901-3.831,3.068-6.302,3.286c-2.951,0.26-5.949,0.392-8.909,0.392
				c-17.483,0-34.703-4.597-49.799-13.295c-0.719-0.413-1.636-0.166-2.049,0.551c-0.414,0.718-0.167,1.635,0.551,2.049
				c15.552,8.959,33.29,13.695,51.297,13.695c3.047,0,6.133-0.136,9.172-0.404c3.269-0.288,6.229-1.832,8.337-4.347
				C155.432,233.319,156.435,230.133,156.146,226.865z"/>
		</g>
	</g>
	<g>
		<g>
			<path class="st12" d="M222.8,196.99l-2.61,0.21c-0.57,0.05-1.13-0.25-1.42-0.75c-0.29-0.51-0.26-1.14,0.08-1.61
				c3.19-4.52,6.04-9.36,8.47-14.39c16.26-33.66,12.45-73.22-9.94-103.22c-3.06-4.1-8.89-4.95-12.99-1.89
				c-0.75,0.56-1.41,1.23-1.95,1.97c22.34,29.99,26.13,69.51,9.88,103.14c-2.43,5.03-5.28,9.87-8.47,14.39
				c-0.34,0.47-0.37,1.1-0.08,1.61c0.29,0.5,0.85,0.8,1.42,0.75l2.61-0.21c5.11-0.4,9.59,3.41,10,8.51c0.2,2.48-0.58,4.88-2.19,6.77
				c-1.6,1.89-3.85,3.03-6.32,3.23l-20.45,1.65c1.4,0.65,2.98,0.96,4.63,0.83l30.82-2.48c2.47-0.2,4.72-1.34,6.32-3.23
				c1.61-1.89,2.39-4.29,2.19-6.77C232.39,200.4,227.91,196.59,222.8,196.99z"/>
		</g>
	</g>
</g>
</svg>
